<svg xmlns="http://www.w3.org/2000/svg" width="400" height="85.881" viewBox="0 0 400 NaN"  fill-rule="evenodd" xmlns:v="https://vecta.io/nano"><path d="M37.667.188L35.693.49 33.86.826l-1.777.437-1.75.486-1.416.475c-1.399.439-2.252.77-2.635 1.02-.201.132-.403.233-.449.225s-.458.152-.916.356l-2.592 1.256c-.179.091-.325.222-.325.292s-.116.127-.259.127c-.503 0-4.837 3.001-6.818 4.721-1.82 1.58-5.256 5.109-5.256 5.398 0 .051-.135.213-.3.361s-.48.532-.7.853-.451.621-.512.667-.497.683-.967 1.417l-1.105 1.659c-.137.179-.25.422-.25.541s-.063.216-.141.216-.261.282-.408.625-.477 1.008-.734 1.475c-.663 1.207-1.594 3.29-1.632 3.65-.009.092-.105.327-.213.522-.241.437-.711 1.805-.812 2.365-.042.228-.139.535-.217.681-.167.314-.626 2.176-.748 3.035-.047.331-.158.793-.247 1.028s-.157.563-.151.731-.108.954-.253 1.746c-.262 1.433-.32 10.368-.072 11.226.053.183.147.746.209 1.25.163 1.315 1.019 5.059 1.262 5.516.078.146.179.472.225.725.091.501.857 2.665 1.109 3.131.086.16.157.366.157.459 0 .318 2.746 5.666 2.997 5.835.067.046.244.32.392.61s.365.628.482.753.356.488.533.807c.298.538.546.858 1.304 1.681.16.174.243.316.183.316s.052.14.25.311.359.354.359.406c0 .429 6.138 6.472 6.361 6.263.03-.029.243.122.472.335.771.718 3.08 2.358 3.458 2.457.207.053.375.169.375.255s.319.308.709.49.933.474 1.208.648.912.511 1.417.75l1.583.779c.793.41 2.664 1.136 3.25 1.261.229.05.492.144.583.211.221.16 2.378.799 2.952.874.249.032.505.111.57.176s.293.117.509.117.821.11 1.347.243c2.346.596 4.313.767 8.652.752 4.261-.016 5.171-.099 8.304-.757l1.65-.333c.267-.048.604-.148.75-.223s.356-.104.465-.065.372-.023.584-.14c.41-.225.45-.238 1.217-.395.275-.056.572-.172.659-.258s.268-.157.403-.157c.228 0 1.771-.565 2.938-1.075 1.694-.741 2.25-1.021 2.25-1.132 0-.07.141-.126.313-.126a.78.78 0 0 0 .521-.25c.114-.138.283-.25.375-.25.159 0 1.481-.746 2.434-1.373.242-.16.553-.342.691-.405s.287-.163.333-.221.458-.359.917-.668.87-.607.916-.663.571-.47 1.167-.919c1.554-1.172 5.727-5.401 6.75-6.84.183-.258.452-.588.597-.732s.631-.825 1.082-1.513.894-1.305.986-1.372.116-.124.053-.125.144-.396.462-.878c.556-.843 2.723-5.086 2.81-5.504.055-.261.209-.682.593-1.621.596-1.456.847-2.209.764-2.292-.046-.046.028-.3.165-.564a5.66 5.66 0 0 0 .396-1.188l.411-1.905c.863-3.905 1.166-9.989.675-13.551l-.323-2.416c-.173-1.415-.905-4.631-1.098-4.825-.086-.087-.156-.284-.156-.437 0-.86-2.407-6.879-2.869-7.174-.088-.056-.164-.168-.168-.25-.015-.265-.359-.961-1-2.026-.347-.574-.63-1.087-.63-1.14s-.338-.54-.75-1.083-.75-1.054-.75-1.137-.291-.454-.646-.824-.618-.702-.582-.737-.301-.452-.747-.924-.778-.86-.736-.86-.776-.862-1.816-1.916-1.983-1.916-2.098-1.917a.21.21 0 0 1-.209-.209c-.001-.114-.262-.385-.58-.602a13.86 13.86 0 0 1-.902-.667 15.98 15.98 0 0 0-1.771-1.352c-.456-.311-.867-.613-.913-.671s-.196-.159-.333-.222-.475-.263-.75-.444-.688-.423-.917-.538-.516-.303-.637-.418-.316-.211-.433-.211-.385-.15-.597-.333-.516-.333-.678-.333-.319-.063-.349-.139c-.127-.315-3.621-1.789-5.806-2.448-.046-.014-.196-.071-.333-.126-.586-.237-1.849-.616-1.962-.589-.067.016-.459-.065-.872-.181-1.489-.415-2.04-.541-2.722-.618-.382-.043-1.294-.191-2.028-.328-1.44-.269-9.442-.305-10.916-.05m73.25 16.052a104.12 104.12 0 0 1-1.417.427c-1.289.381-4.5 1.947-4.5 2.194 0 .076-.08.139-.178.139-.584 0-2.865 2.25-3.53 3.482-.778 1.44-.862 3.785-.182 5.101l.885 1.792c.393.802.78 1.458.86 1.458s.131.057.115.125.115.375.292.681c1.746 3.016 2.323 3.962 2.476 4.067.098.067.113.123.033.125s-.062.103.04.226.421.666.709 1.208.576 1.022.639 1.068.167.196.23.334a7.92 7.92 0 0 0 .444.75c.181.275.462.762.623 1.083s.388.682.502.804.209.288.209.372.286.622.635 1.196.687 1.157.749 1.295a4.71 4.71 0 0 0 .277.5c.527.809 1.505 2.526 1.505 2.643 0 .076.151.275.335.441s.297.34.251.385.007.192.118.325a5.11 5.11 0 0 1 .73 1.247c.058.161.163.292.234.292s.177.188.234.417.178.416.268.416.164.069.164.153c0 .169 2.477 4.548 2.648 4.681.059.045.255.395.436.776s.386.659.456.616.126.047.126.2.327.814.727 1.468 1.353 2.277 2.119 3.606 1.442 2.454 1.499 2.5.297.384.532.75c.653 1.022 2.79 3.056 2.79 2.655 0-.068.131-.004.292.141 1.319 1.194 6.714 1.501 7.399.421.075-.119.138-.16.14-.091.003.17 1.874-.877 2.169-1.213.046-.053.323-.262.615-.467.512-.357 1.627-1.893 2.38-3.279a64.89 64.89 0 0 1 .849-1.5c.267-.458.656-1.171.863-1.583s.437-.777.512-.809.207-.221.294-.417a7.38 7.38 0 0 1 .49-.858 13.53 13.53 0 0 0 .63-1.083c.165-.321.504-.921.754-1.333l1.617-2.75 1.321-2.25c.087-.138.396-.696.687-1.241s.632-1.094.758-1.22.23-.303.23-.392.078-.252.174-.363c.206-.238 2.632-4.386 2.847-4.868.082-.183.338-.633.568-1s.509-.854.62-1.083.256-.457.323-.506.238-.368.38-.708.333-.619.424-.619.164-.074.164-.164c0-.137.932-1.789 1.506-2.67a4.51 4.51 0 0 0 .276-.5c.062-.137.411-.737.774-1.333s.859-1.458 1.101-1.917.65-1.161.907-1.562.724-1.301 1.038-2l.711-1.522c.652-1.177.741-3.581.158-4.284-.098-.118-.133-.215-.078-.215.13 0-.446-1.028-.84-1.498-.603-.721-1.039-1.169-1.137-1.169-.054 0-.369-.262-.7-.583s-.692-.583-.804-.583-.3-.115-.416-.255-.834-.594-1.596-1.009c-4.419-2.409-8.153-1.867-9.85 1.43-.165.321-.341.621-.392.667-.188.172-1.151 1.833-1.062 1.833.051 0-.062.218-.251.484s-.345.552-.345.634-.223.503-.496.933-.456.783-.406.783-.051.206-.226.458-.67 1.187-1.103 2.079-.857 1.664-.944 1.718-.158.237-.158.407-.07.335-.154.365-.179.166-.209.3-.183.472-.341.75c-.693 1.219-1.032 1.845-1.041 1.923a1.05 1.05 0 0 1-.131.273c-.067.104-.411.742-.766 1.416L135.44 36.4c-.242.449-.44.912-.44 1.03s-.118.331-.262.475-.207.262-.141.262.012.131-.121.291-.389.59-.568.954-.531 1.024-.783 1.466-.458.906-.458 1.032-.057.254-.125.284-.493.768-.943 1.639c-1.021 1.978-1.266 2.356-1.266 1.954 0-.158-.075-.287-.166-.287s-.167-.101-.167-.225c0-.299-1.469-3.108-1.723-3.294-.076-.056-.128-.131-.114-.166.052-.135-.224-.743-.464-1.023-.138-.161-.207-.292-.155-.292s-.085-.337-.307-.75l-.82-1.524c-.229-.426-.501-.876-.604-1s-.139-.226-.08-.226-.151-.469-.465-1.042c-.669-1.221-2.105-3.968-3.726-7.125L119.574 25c-.447-.871-.853-1.621-.902-1.667s-.406-.72-.794-1.5c-2.078-4.172-4.769-6.334-6.961-5.593m73.416.189c-1.901.317-4.946 1.052-5.666 1.367-.321.141-.646.242-.723.225s-.395.128-.708.321-.569.313-.569.265c0-.282-4.822 2.553-4.973 2.923-.03.075-.143.138-.25.139s-.569.339-1.026.75-.889.748-.959.748-.126.112-.126.25-.061.231-.136.208c-.271-.083-3.197 3.136-3.197 3.518 0 .105-.073.19-.163.19s-.317.282-.505.625-.488.85-.668 1.125c-.371.57-.664 1.199-.664 1.428 0 .086-.056.156-.125.156s-.263.357-.432.792l-.445 1.124c-1.291 3.099-1.735 5.807-1.738 10.584-.002 4.132.028 4.416.754 7.25.094.366.236.967.316 1.335.375 1.726 3.417 7.858 3.994 8.05.097.033.176.162.176.287s.094.288.209.361.321.352.458.62c.316.616 3.139 3.43 3.441 3.43.124 0 .225.067.225.149 0 .237 2.27 1.699 4.09 2.634a20.34 20.34 0 0 0 4.41 1.715 20.52 20.52 0 0 1 1.188.366c.24.088.84.221 1.333.296a50.61 50.61 0 0 1 1.896.339c1.837.369 10.819.311 13.5-.088l2.25-.325c.412-.056.975-.17 1.25-.254s.688-.187.917-.228c1.242-.224 3.333-.906 3.333-1.088 0-.062.158-.124.352-.138a1.26 1.26 0 0 0 .638-.286c.157-.142.374-.259.481-.259s.196-.075.196-.166.086-.167.191-.167c.321 0 1.642-1.171 1.642-1.456 0-.146.047-.219.104-.162.141.141.762-.8 1.12-1.697.369-.925.363-3.252-.011-4.435-.386-1.218-1.721-3.93-1.986-4.032-.125-.048-.227-.157-.227-.243 0-.238-1.195-1.477-1.339-1.388-.069.043-.168-.032-.22-.166-.404-1.055-3.41-1.114-6.031-.119-1.013.384-1.913.698-2 .699s-.347.097-.577.213-.716.233-1.083.258a6.84 6.84 0 0 0-1.167.19c-2.398.694-8.421.394-10.096-.502-.222-.119-.423-.203-.446-.186s-.417-.159-.874-.391-.871-.418-.919-.415c-.21.014-2.415-2.107-2.415-2.323 0-.077-.112-.355-.249-.618s-.249-.683-.25-.935l-.001-.459h12.159c13.128 0 12.949.011 14.881-.903.502-.237 1.146-.638 1.432-.889s.789-.676 1.119-.943c.656-.53 1.788-2.103 1.99-2.765.07-.229.188-.493.262-.587s.161-.357.192-.583.113-.501.18-.609c.467-.743.739-5.232.44-7.259-.372-2.533-1.845-6.795-2.348-6.795-.077 0-.14-.119-.14-.263s-.281-.676-.625-1.181l-.792-1.184c-.672-1.08-3.331-3.705-3.752-3.705-.101 0-.138-.075-.081-.167s.027-.167-.065-.167-.352-.168-.577-.375-.773-.562-1.217-.791-.845-.455-.891-.5c-.234-.234-3.346-1.561-3.75-1.599-.092-.009-.364-.097-.604-.197a11.19 11.19 0 0 0-2.54-.64 8.6 8.6 0 0 1-1.273-.26c-.937-.29-7.829-.32-9.5-.042m56.084.016c-1.9.298-4.44.927-5.359 1.327-.289.125-.652.228-.807.228s-.482.107-.725.237a27.11 27.11 0 0 1-1.276.614c-.458.207-.879.444-.935.527s-.131.136-.167.119c-.13-.063-1.315.569-1.315.701 0 .074-.104.135-.232.135-.681 0-5.934 4.448-5.934 5.025 0 .089-.062.124-.136.078s-.267.136-.427.406-.36.491-.447.491-.157.113-.157.25-.075.25-.167.25-.166.113-.166.25-.059.25-.132.25c-.202 0-2.127 3.242-2.276 3.834-.011.045-.108.24-.215.432-.579 1.04-1.475 4.317-1.954 7.151-.244 1.445-.28 7.608-.049 8.5a27.4 27.4 0 0 1 .377 2.083c.076.648.645 2.687.772 2.765.079.049.143.229.143.401s.087.524.193.782.21.554.232.657c.096.451 1.803 3.74 2.45 4.719l1.018 1.584c.17.28.376.534.458.565s.149.155.149.277.065.248.144.278.451.414.828.852.72.798.764.801.439.36.88.794c.779.767 2.38 2.014 2.884 2.246.138.064.513.277.834.474 1.548.95 4.166 2.1 5.431 2.386.175.04.881.22 1.569.4 2.797.732 4.182.89 8.023.913 4.471.028 7.117-.051 8.179-.242a53.88 53.88 0 0 1 2.196-.316c.775-.096 1.668-.283 1.984-.415s.612-.204.656-.16c.325.325 4.719-1.449 5.584-2.255.2-.186.428-.339.507-.339.18 0 1.204-1.147 1.204-1.349 0-.083.064-.151.141-.151.26 0 .936-1.935 1.092-3.125.194-1.476-1.169-5.371-2.31-6.603-.224-.241-.359-.439-.301-.439.246 0-.94-1.087-1.789-1.64-1.485-.969-3.201-.879-6.312.33-.676.262-1.29.477-1.364.477s-.346.087-.604.193a4.41 4.41 0 0 1-.886.249c-.229.031-.867.14-1.417.242-2.158.401-6.463.445-8.167.083-1.686-.357-3.979-1.35-4.75-2.056-.229-.21-.529-.419-.666-.465-.404-.134-1.398-1.763-1.6-2.621l-.186-.792 12.185-.012 12.434-.075c.137-.034.475-.105.75-.158 1.803-.349 5.892-3.287 5.487-3.943-.05-.08-.014-.145.078-.145 1.331 0 2.394-8.228 1.529-11.833-.504-2.099-1.814-5.37-2.337-5.834-.051-.046-.243-.371-.425-.722s-.463-.711-.624-.798-.291-.267-.291-.399c0-.541-4.078-4.581-4.624-4.581-.115 0-.21-.075-.21-.166s-.071-.167-.159-.167-.444-.194-.792-.431c-.703-.479-2.984-1.584-3.176-1.538-.067.016-.385-.091-.706-.237-.856-.391-2.872-.966-3.964-1.132l-1.953-.32c-1.4-.246-6.86-.18-8.666.103m135.5-.027l-2.705.305c-.57.052-1.195.179-1.389.282s-.39.15-.438.102-.284-.007-.527.088a5.37 5.37 0 0 1-1.025.255c-.321.044-.911.224-1.313.399s-.799.318-.885.318c-.251 0-1.973.861-2.968 1.484-1.89 1.183-4.834 4.661-4.834 5.71 0 .095-.103.408-.229.697-1.395 3.2-1.102 10.835.54 14.065l1.219 2.362c.53 1.007 3.763 4.235 3.998 3.991.031-.032.281.102.556.298.77.548 3.026 1.726 3.306 1.726.137 0 .274.056.305.125.082.186 1.271.708 1.611.708.162 0 .375.081.474.18s.432.245.742.325l2.062.55a29.75 29.75 0 0 0 2.916.603c.78.11 1.679.266 2 .347a18.49 18.49 0 0 0 1.117.238c.293.051.724.165.958.254s.426.107.428.041.058-.046.125.046.486.349.93.573c1.839.926 1.32 2.298-1.141 3.02-1.194.35-5.173.495-5.636.206a1.37 1.37 0 0 0-.43-.159c-.703-.106-2.161-.697-3.934-1.594l-3.083-1.559c-2.499-1.258-4.986-1.601-6.549-.901-.619.277-1.942 1.553-1.949 1.879-.001.073-.079.223-.172.333-1.786 2.115-3.072 5.343-3.021 7.585.031 1.372 1.252 3.365 2.063 3.366.067.001.609.299 1.204.663s1.272.71 1.503.768.421.173.421.254.079.149.177.149.603.194 1.125.43c2.243 1.018 4.958 1.968 5.198 1.82.072-.045.346.03.607.167s.653.248.869.249.816.106 1.333.235c3.809.95 12.617.509 17.107-.857 1.711-.521 5.278-2.108 5.389-2.399.031-.08.128-.145.216-.145.185 0 .341-.124 1.57-1.245.5-.456.909-.917.909-1.024s.112-.239.25-.291.25-.203.25-.334.094-.273.21-.318c.467-.179 1.99-3.75 2.184-5.121.046-.321.161-.846.257-1.168.167-.555.154-6.829-.014-7.582l-.211-1c-.075-.367-.195-.742-.267-.834s-.126-.204-.121-.25c.04-.323-.488-1.605-.835-2.027-.126-.152-.248-.377-.271-.5-.063-.333-.664-1.304-.807-1.305-.069-.001-.125-.075-.125-.166 0-.414-2.361-2.752-2.569-2.544-.054.054-.098.02-.098-.076 0-.271-4.419-2.382-4.987-2.382-.154 0-.36-.08-.457-.177-.172-.172-2.349-.831-3.889-1.178l-.917-.214c-.576-.157-1.206-.27-2.833-.51-2.995-.44-5.134-1.024-5.805-1.583-2.145-1.787-1.905-2.99.768-3.858 1.208-.392 4.722-.478 5.957-.145.398.107.895.213 1.104.235.618.066 2.719.789 4.014 1.38.662.303 1.337.577 1.5.609s.483.134.712.228c.93.38 3.333.159 3.333-.307 0-.08.056-.128.125-.105.309.103 2.126-1.906 2.82-3.118 2.607-4.556 2.477-6.788-.528-9.062-.263-.198-3.478-1.529-3.695-1.528-.107 0-.407-.105-.667-.234-.639-.316-2.071-.768-2.432-.767-.162.001-.424-.068-.584-.153-.301-.16-2.353-.578-3.789-.771l-1.417-.191c-1.348-.181-5.371-.162-6.916.034m-73.782.669c-.035.035-.324.098-.641.139-1.039.135-1.738.321-2.073.549-.181.124-.466.225-.634.225-1.19 0-5.042 3.17-6.347 5.223-.165.26-.33.443-.366.407-.092-.093-.293-1.318-.275-1.679.008-.165-.242-.84-.555-1.5s-.571-1.147-.573-1.082-.178-.047-.39-.25-.358-.425-.324-.494-.054-.125-.197-.125-.26-.075-.26-.167-.113-.166-.252-.166-.57-.147-.958-.325c-1.162-.535-4.858-.803-6.873-.499l-1.667.247c-.958.136-1.337.266-1.958.673-.344.224-.625.37-.625.323 0-.281-1.339 1.436-1.399 1.795-.019.111-.141.39-.272.619-.407.713-.407.748-.41 22.424l.263 21.583a3.47 3.47 0 0 1 .381.882c.064.26.208.585.318.722.553.681 1.119 1.257 1.119 1.138 0-.074.136-.01.303.14.882.799 2.075.999 6.03 1.014 5.918.022 7.405-.698 8.512-4.118.292-.903.312-1.673.319-11.754l.069-11.118c.034-.181.111-.78.17-1.33.304-2.797 1.917-5.174 3.86-5.686 1.484-.391 3.75-.198 4.416.376.145.125.351.227.459.227s.195.075.195.167.094.167.208.167.387.264.605.584.462.582.542.582.145.115.145.256.121.441.269.667.221.41.161.41-.017.169.094.375c.521.962.631 3.325.64 13.709.01 10.914.062 11.872.73 13.329.36.788 1.606 2.357 1.606 2.023 0-.063.152.026.338.2.937.872 7.847 1.383 10.079.745 1.066-.306 1.857-.624 2.147-.865.148-.123.269-.172.269-.109 0 .205 1.007-.977 1.269-1.49.887-1.734.914-2.146.983-14.833.066-12.342.083-12.524 1.353-14.712 1.425-2.454 6.201-2.743 8.34-.505 2.021 2.116 2.12 2.874 2.164 16.467l.099 11.5c.982 3.92 3.167 5.004 9.626 4.778 4.472-.156 5.704-.774 6.87-3.445l.546-1.25-.002-12.333c-.004-13.888-.016-14.513-.333-16.25l-.318-1.834c-.233-1.492-.42-2.32-.651-2.873-.138-.33-.22-.63-.184-.667.177-.176-1.747-4.682-2.059-4.823-.065-.029-.266-.342-.446-.694-.73-1.434-4.483-4.865-6.257-5.721-1.184-.572-2.333-1.043-2.333-.958 0 .043-.224-.038-.499-.18-1.143-.591-5.494-1.014-7.206-.7-1.436.263-2.234.483-2.587.713-.206.134-.375.205-.375.157s-.675.259-1.5.681-1.5.835-1.5.917-.08.148-.179.148c-.576 0-4.469 3.061-4.484 3.525-.002.06-.247.362-.545.671s-.718.776-.933 1.037l-.391.474-.222-.395c-.122-.217-.35-.642-.506-.945s-.605-.878-.995-1.28-.736-.792-.768-.87c-.111-.26-1.76-1.717-1.944-1.717-.101 0-.243-.094-.316-.21-.26-.409-2.108-1.433-3.383-1.873a34.64 34.64 0 0 1-1.152-.439c-.984-.396-6.124-.98-6.38-.724M35.638 24.611c.612.244 1.337.581 1.612.748a17.04 17.04 0 0 0 .833.475c.184.094.559.316.834.494s.762.454 1.083.614.621.337.667.394c.134.166 1.902 1.141 2.064 1.138a.35.35 0 0 1 .25.142c.101.143 1.634 1.069 3.269 1.975.458.254 1.113.638 1.455.852s.689.39.771.39.245.115.361.254.25.215.298.167.219.031.38.176c.3.272 1.084.75 1.818 1.109.23.112.455.249.5.305.126.151 6.157 3.623 6.834 3.933.137.063.31.214.383.335s.208.221.3.221c1.217 0 2.733 4.433 1.99 5.821-.102.19-.138.346-.08.346.696 0-2.252 2.828-3.593 3.446A59.65 59.65 0 0 0 55 49.505a7.98 7.98 0 0 1-.583.331c-.184.093-.559.319-.834.502s-.631.378-.791.433-.292.15-.292.211c0 .097-.66.473-1.333.758-.277.118-.577.297-1.622.972-.388.25-.784.455-.88.455s-.218.112-.271.249-.15.215-.218.173-.511.182-.987.495a20.5 20.5 0 0 1-1.734 1.006c-.478.24-.907.487-.953.548s-.235.192-.419.291c-1.507.808-1.844 1.002-1.92 1.102-.047.063-.272.194-.5.291s-1.276.697-2.33 1.334c-5.277 3.184-6.264 3.185-8.875.005-.252-.307-.458-.626-.458-.709s-.137-.35-.304-.593-.467-.9-.667-1.459c-.891-2.501-.259-3.488 3.471-5.415.779-.402 1.516-.826 1.637-.942s.317-.21.436-.21.41-.153.649-.34.454-.34.48-.339c.264.016.798-.231.798-.368 0-.096.045-.13.099-.076s.358-.045.673-.223 1.49-.79 2.609-1.363 2.061-1.097 2.091-1.166.143-.125.25-.126.42-.121.695-.269l2-1.037c.825-.423 1.599-.864 1.72-.981s.327-.212.458-.212c.367 0 .283-.265-.178-.568-.229-.15-.417-.222-.417-.16s-.131.002-.292-.135-.891-.542-1.625-.901-1.358-.709-1.389-.777-.193-.125-.361-.125-.332-.079-.364-.176-.181-.194-.33-.216-.373-.118-.497-.213-.525-.322-.892-.505c-.78-.388-4.799-2.483-5.983-3.119-.449-.241-.886-.438-.97-.438s-.267-.113-.406-.252-.32-.208-.404-.156-.154.021-.154-.069-.262-.25-.583-.356-.583-.262-.583-.347-.104-.153-.23-.153-.322-.112-.435-.248-.264-.213-.335-.169c-.177.109-1.346-1.199-1.743-1.952-.294-.557-.305-.705-.117-1.5l.303-1.34c.052-.252.165-.458.252-.458s.111-.075.055-.167-.024-.166.073-.166.177-.077.177-.17.188-.469.418-.834.375-.663.321-.663.129-.191.406-.424.552-.576.611-.763.151-.294.205-.241.253-.043.443-.216c.856-.776 2.035-.857 3.567-.245m156.31 7.614c.2.047.537.181.75.299s.432.217.488.22c.16.009 1.377 1.29 1.675 1.763.468.741.744 2.777.42 3.101-.063.063-.114.223-.114.356s-.225.498-.5.811-.5.528-.5.477-.244.039-.542.201c-.487.264-1.222.3-7.273.352l-6.732.058.113-.857c.191-1.44.6-2.155 2.1-3.68 3.096-3.146 6.046-4.05 10.115-3.101m55.563-.131c2.818.81 4.307 2.645 4.042 4.977-.128 1.118-.905 2.227-1.655 2.363-.247.045-.569.144-.715.22s-3.21.153-6.808.17l-6.542.03v-.549c0-.55.641-2.34.875-2.444.069-.03.125-.123.125-.206 0-.211.481-.793 1.153-1.395l.875-.802c.168-.16.374-.291.458-.291s.178-.057.209-.125c.189-.425 1.788-1.318 3.364-1.879 1.101-.392 3.38-.426 4.619-.069" fill="#048cfc"/><path d="M182.719 39.791h6.167c1.667-.027.256-.049-3.136-.049l-3.031.049m56.073 0h6.083c1.673-.027.304-.049-3.042-.049l-3.041.049m82.785 11.876l.048 4.208v-8.417c-.026-2.314-.048-.42-.048 4.209m11.834 0l.047 4.208v-8.417c-.026-2.314-.047-.42-.047 4.209" fill="#0494fc"/></svg>